<svg width="35" height="35" viewBox="0 0 35 35" fill="none" xmlns="http://www.w3.org/2000/svg">
<path fill-rule="evenodd" clip-rule="evenodd" d="M6.29289 17.7071C5.90237 17.3166 5.90237 16.6834 6.29289 16.2929L14.2929 8.29289C14.6834 7.90237 15.3166 7.90237 15.7071 8.29289C16.0976 8.68342 16.0976 9.31658 15.7071 9.70711L8.41421 17L15.7071 24.2929C16.0976 24.6834 16.0976 25.3166 15.7071 25.7071C15.3166 26.0976 14.6834 26.0976 14.2929 25.7071L6.29289 17.7071Z" fill="#3F3F3F"/>
<path fill-rule="evenodd" clip-rule="evenodd" d="M7 17C7 16.4477 7.44772 16 8 16H26C26.5523 16 27 16.4477 27 17C27 17.5523 26.5523 18 26 18H8C7.44772 18 7 17.5523 7 17Z" fill="#3F3F3F"/>
</svg>
