<svg width="35" height="35" viewBox="0 0 35 35" fill="none" xmlns="http://www.w3.org/2000/svg">
<path d="M24.0042 25.9422H10.0042C9.73899 25.9422 9.48463 26.0476 9.2971 26.2351C9.10956 26.4227 9.0042 26.677 9.0042 26.9422C9.0042 27.2075 9.10956 27.4618 9.2971 27.6493C9.48463 27.8369 9.73899 27.9422 10.0042 27.9422H24.0042C24.2694 27.9422 24.5238 27.8369 24.7113 27.6493C24.8988 27.4618 25.0042 27.2075 25.0042 26.9422C25.0042 26.677 24.8988 26.4227 24.7113 26.2351C24.5238 26.0476 24.2694 25.9422 24.0042 25.9422ZM10.0042 23.9422H10.0942L14.2642 23.5622C14.721 23.5167 15.1482 23.3155 15.4742 22.9922L24.4742 13.9922C24.8235 13.6232 25.0123 13.1307 24.9992 12.6228C24.9861 12.1148 24.7721 11.6327 24.4042 11.2822L21.6642 8.54224C21.3066 8.20634 20.838 8.0136 20.3475 8.00069C19.8571 7.98779 19.379 8.15561 19.0042 8.47224L10.0042 17.4722C9.68097 17.7982 9.47971 18.2254 9.4342 18.6822L9.0042 22.8522C8.99073 22.9987 9.00974 23.1463 9.05986 23.2846C9.10999 23.4229 9.19001 23.5484 9.2942 23.6522C9.38764 23.7449 9.49846 23.8182 9.6203 23.868C9.74213 23.9178 9.8726 23.943 10.0042 23.9422ZM20.2742 9.94224L23.0042 12.6722L21.0042 14.6222L18.3242 11.9422L20.2742 9.94224Z" fill="#3F3F3F"/>
</svg>
