<svg width="61" height="60" viewBox="0 0 61 60" fill="current" xmlns="http://www.w3.org/2000/svg">
<g clip-path="url(#clip0_569_214)">
<path d="M30.8755 59.993H18.0321C15.2003 59.9935 12.4842 58.8696 10.4806 56.8684C8.47705 54.8672 7.35 52.1524 7.34717 49.3205C7.34717 45.0394 7.34717 40.7583 7.34717 36.4772C7.34963 35.9557 7.54235 35.4531 7.88914 35.0637C8.23593 34.6743 8.71294 34.4248 9.23061 34.3622C9.74829 34.2996 10.271 34.4281 10.7007 34.7236C11.1303 35.019 11.4373 35.4612 11.5641 35.967C11.6144 36.2519 11.6336 36.5414 11.6212 36.8304C11.6212 40.9795 11.6212 45.1274 11.6212 49.2742C11.614 50.1229 11.7762 50.9646 12.0982 51.75C12.4201 52.5353 12.8955 53.2486 13.4965 53.848C14.0974 54.4475 14.8118 54.9211 15.598 55.2411C16.3841 55.5611 17.2262 55.7212 18.075 55.7119C26.6134 55.7119 35.1525 55.7119 43.6922 55.7119C44.5404 55.7226 45.3823 55.5641 46.1687 55.2457C46.955 54.9273 47.67 54.4554 48.2719 53.8575C48.8737 53.2596 49.3504 52.5478 49.674 51.7636C49.9976 50.9794 50.1617 50.1386 50.1567 49.2902C50.1567 45.0537 50.1567 40.8172 50.1567 36.5806C50.1567 34.9163 51.6693 33.8407 53.116 34.4757C54.0239 34.8735 54.4378 35.6156 54.436 36.6163C54.436 40.8534 54.436 45.09 54.436 49.3259C54.4699 51.8415 53.583 54.2828 51.9422 56.19C49.8106 58.6873 47.076 59.9681 43.7921 59.9877C39.4824 60.0127 35.1745 59.993 30.8755 59.993Z" fill="black"/>
<path d="M30.9575 5.15385C28.4905 7.61907 26.1234 9.97904 23.7598 12.3426C17.4404 18.6679 11.1216 24.9951 4.80335 31.324C4.08983 32.0376 3.31031 32.3711 2.331 32.0179C2.01114 31.9002 1.72401 31.7078 1.49349 31.4568C1.26298 31.2057 1.09575 30.9032 1.00572 30.5745C0.915688 30.2458 0.905453 29.9003 0.975868 29.5668C1.04628 29.2334 1.19531 28.9215 1.41056 28.6572C1.55686 28.4889 1.71166 28.3282 1.87435 28.1756L29.0702 0.972619C30.367 -0.324206 31.4444 -0.324206 32.7448 0.972619C41.8268 10.0569 50.9099 19.1395 59.9942 28.2202C60.6935 28.9195 61.0984 29.6758 60.7737 30.6712C60.6676 31.0073 60.4796 31.3119 60.2268 31.5576C59.9739 31.8032 59.664 31.9822 59.3249 32.0786C58.9857 32.175 58.628 32.1856 58.2837 32.1097C57.9395 32.0337 57.6195 31.8735 57.3524 31.6433C57.1651 31.4864 56.9956 31.3044 56.8173 31.1314C48.3858 22.688 39.9544 14.2447 31.5229 5.80137C31.3428 5.62299 31.1787 5.40894 30.9575 5.15385Z" fill="black"/>
</g>
<defs>
<clipPath id="clip0_569_214">
<rect width="59.9625" height="60" fill="white" transform="translate(0.925293)"/>
</clipPath>
</defs>
</svg>
