<svg width="32" height="32" viewBox="0 0 32 32" fill="none" xmlns="http://www.w3.org/2000/svg">
<path d="M8.70799 7.38185L7.38216 8.70768C7.26431 8.82553 7.26431 8.94338 7.38216 9.06123L22.9385 24.6176C23.0564 24.7354 23.1742 24.7354 23.2921 24.6176L24.6179 23.2918C24.7357 23.1739 24.7357 23.0561 24.6179 22.9382L9.06154 7.38185C8.94369 7.264 8.82584 7.264 8.70799 7.38185Z" fill="#3F3F3F"/>
<path d="M22.5849 7.73537L7.7357 22.5846C7.61785 22.7025 7.61785 22.8203 7.7357 22.9382L9.06153 24.264C9.17938 24.3818 9.29723 24.3818 9.41508 24.264L24.2643 9.41475C24.3822 9.2969 24.3822 9.17905 24.2643 9.0612L22.9385 7.73537C22.8206 7.61752 22.7028 7.61752 22.5849 7.73537Z" fill="#3F3F3F"/>
</svg>
