<svg width="32" height="32" viewBox="0 0 32 32" fill="none" xmlns="http://www.w3.org/2000/svg">
<path d="M16.9375 4.75H15.0625C14.8958 4.75 14.8125 4.83333 14.8125 5V27C14.8125 27.1667 14.8958 27.25 15.0625 27.25H16.9375C17.1042 27.25 17.1875 27.1667 17.1875 27V5C17.1875 4.83333 17.1042 4.75 16.9375 4.75Z" fill="#3F3F3F"/>
<path d="M26.5 14.8125H5.5C5.33333 14.8125 5.25 14.8958 5.25 15.0625V16.9375C5.25 17.1042 5.33333 17.1875 5.5 17.1875H26.5C26.6667 17.1875 26.75 17.1042 26.75 16.9375V15.0625C26.75 14.8958 26.6667 14.8125 26.5 14.8125Z" fill="#3F3F3F"/>
</svg>
