<svg width="56" height="60" viewBox="0 0 56 60" fill="current" xmlns="http://www.w3.org/2000/svg">
<g clip-path="url(#clip0_569_211)">
<path d="M1.70862 59.9997C0.345087 59.4977 -0.0423979 58.485 0.000166734 57.095C0.116119 53.75 0.609281 50.4901 1.90824 47.3873C3.99097 42.3808 7.62217 38.9008 12.5156 36.6728C16.0382 35.0685 19.7751 34.3244 23.6074 33.9956C27.1894 33.6783 30.7952 33.7507 34.3616 34.2114C38.9615 34.8161 43.328 36.1018 47.1721 38.8142C51.5665 41.917 54.1849 46.1896 55.2447 51.4075C55.6233 53.2715 55.685 55.1987 55.9037 57.0965C56.0607 58.482 55.5808 59.4977 54.2172 59.9997H1.70862ZM4.40341 55.5891H51.3713C51.3914 55.5213 51.4033 55.4513 51.4065 55.3807C51.3654 54.9403 51.3316 54.4868 51.2715 54.0421C50.8869 51.2431 50.0474 48.6026 48.4446 46.2513C46.1989 42.9474 43.0051 40.9498 39.2697 39.7374C36.6204 38.8729 33.889 38.4487 31.1134 38.2902C26.1319 38.0084 21.2018 38.2389 16.4169 39.8167C13.7148 40.7076 11.2798 42.0667 9.2499 44.0966C7.18038 46.1662 5.87409 48.6672 5.15196 51.4735C4.81291 52.8048 4.65145 54.1801 4.40341 55.5891Z" fill="black"/>
<path d="M13.4194 14.8774C13.5457 9.86061 15.3275 5.65551 19.4754 2.66425C22.6119 0.402452 26.1697 -0.351969 29.9727 0.147064C34.1558 0.697469 37.5169 2.69801 39.9035 6.19858C42.1051 9.41735 42.8096 13.0236 42.3473 16.8559C41.8849 20.6882 40.2572 23.9979 37.4641 26.7221C32.597 31.4702 24.7769 31.8592 19.4827 27.591C15.4332 24.3208 13.5897 19.9954 13.4194 14.8774ZM38.104 15.1592C38.0761 12.2472 37.3628 9.87529 35.6455 7.88062C33.2487 5.10071 30.1459 4.06448 26.5631 4.48279C23.4368 4.85119 20.9607 6.37471 19.3433 9.10619C16.6411 13.665 17.6172 19.9983 21.5199 23.6075C24.862 26.7001 29.5925 27.0875 33.2986 24.4661C36.5893 22.1368 37.9763 18.7874 38.104 15.1592Z" fill="black"/>
</g>
<defs>
<clipPath id="clip0_569_211">
<rect width="55.9255" height="60" fill="white"/>
</clipPath>
</defs>
</svg>
